<svg width="1300" height="1299" xmlns="http://www.w3.org/2000/svg" xmlns:xlink="http://www.w3.org/1999/xlink" xml:space="preserve" overflow="hidden"><g transform="translate(-1550 -588)"><path d="M1550 1237.5C1550 878.791 1841.01 588 2200 588 2558.99 588 2850 878.791 2850 1237.5 2850 1596.21 2558.99 1887 2200 1887 1841.01 1887 1550 1596.21 1550 1237.5Z" fill="#BFBFBF" fill-rule="evenodd"/><path d="M1680 1237.5C1680 950.588 1912.81 718 2200 718 2487.19 718 2720 950.588 2720 1237.5 2720 1524.41 2487.19 1757 2200 1757 1912.81 1757 1680 1524.41 1680 1237.5Z" fill="#FFFFFF" fill-rule="evenodd"/><path d="M2192 884 2192 1590" stroke="#4472C4" stroke-width="91.6667" stroke-miterlimit="8" fill="none" fill-rule="evenodd"/><path d="M0 0 695.676 0.000360892" stroke="#4472C4" stroke-width="91.6667" stroke-miterlimit="8" fill="none" fill-rule="evenodd" transform="matrix(-1 0 0 1 2547.68 1238)"/></g></svg>